<?xml version="1.0" encoding="UTF-8"?>
<svg xmlns="http://www.w3.org/2000/svg" width="32" height="40" viewBox="0 0 32 40" fill="none">
  <path d="M21.2663 13H13.4171C13.0403 12.9974 12.6799 12.8478 12.4145 12.5838C12.149 12.3198 12 11.9629 12 11.5909V10.5985C12.0027 7.7884 13.1344 5.09415 15.1467 3.10712C17.1591 1.12008 19.8877 0.00262748 22.7337 0H30.5729C30.9514 0 31.3144 0.14845 31.582 0.41272C31.8497 0.676989 32 1.03541 32 1.40915V2.40151C31.9947 5.2108 30.8621 7.90351 28.8503 9.88998C26.8385 11.8764 24.1115 12.9948 21.2663 13ZM14.8543 10.1817H21.2663C23.2809 10.1797 25.2183 9.41696 26.6815 8.0497C28.1447 6.68243 29.0228 4.81426 29.1357 2.82823H22.7337C20.7188 2.83241 18.7816 3.59568 17.3173 4.96223C15.853 6.32879 14.972 8.19561 14.8543 10.1817Z" fill="white"></path>
  <path d="M13.4947 29C13.0973 28.9973 12.7172 28.8443 12.4372 28.5744C12.1572 28.3045 12 27.9396 12 27.5592V12.4408C11.9986 12.2521 12.0363 12.065 12.1108 11.8902C12.1853 11.7155 12.2951 11.5566 12.434 11.4226C12.573 11.2887 12.7382 11.1824 12.9203 11.1099C13.1023 11.0374 13.2975 11 13.4947 11C13.6928 10.9987 13.8891 11.035 14.0724 11.107C14.2557 11.1789 14.4221 11.285 14.5622 11.419C14.7023 11.5531 14.8131 11.7124 14.8882 11.8879C14.9634 12.0633 15.0014 12.2512 15 12.4408V27.5592C15 27.9413 14.8414 28.3078 14.5591 28.578C14.2768 28.8482 13.8939 29 13.4947 29Z" fill="white"></path>
  <path d="M14.2728 40H3.00903C2.21099 40 1.44561 39.6782 0.881307 39.1054C0.317004 38.5325 0 37.7556 0 36.9455V32.9646C0.00530807 28.7322 1.66396 24.6746 4.61223 21.6818C7.5605 18.6891 11.5577 17.0054 15.7272 17H26.991C27.789 17 28.5544 17.3218 29.1187 17.8946C29.683 18.4674 30 19.2444 30 20.0544V24.0252C29.9973 28.2594 28.3398 32.3195 25.3913 35.3145C22.4427 38.3095 18.444 39.9946 14.2728 40ZM15.7673 19.9221C12.3541 19.922 9.07978 21.2942 6.66064 23.7384C4.24151 26.1826 2.87447 29.4999 2.85855 32.9646V36.9354C2.85855 36.9705 2.8723 37.0041 2.89675 37.0289C2.92121 37.0538 2.95437 37.0677 2.98895 37.0677H14.2728C17.6895 37.0623 20.9647 35.6822 23.3806 33.2298C25.7966 30.7774 27.1562 27.4527 27.1615 23.9845V20.0137C27.1615 19.9786 27.1477 19.9449 27.1233 19.9201C27.0988 19.8953 27.0657 19.8814 27.0311 19.8814L15.7673 19.9221Z" fill="white"></path>
  <path d="M8.39161 32C8.14703 32.001 7.90656 31.939 7.69473 31.8203C7.4829 31.7017 7.30729 31.5306 7.18587 31.3246C7.09467 31.1717 7.03552 31.0028 7.01179 30.8276C6.98806 30.6524 7.00023 30.4744 7.0476 30.3038C7.09496 30.1332 7.17658 29.9734 7.28779 29.8335C7.399 29.6936 7.53761 29.5764 7.69563 29.4887C8.08774 29.2604 17.4983 23.9999 20.145 23.0772C20.4922 22.9582 20.8737 22.9774 21.2063 23.1307C21.5388 23.284 21.7952 23.5589 21.9193 23.8953C22.0425 24.2309 22.024 24.6001 21.868 24.9226C21.7119 25.2451 21.4309 25.4947 21.0861 25.6171C19.0766 26.3115 11.7441 30.3733 9.07781 31.8192C8.86997 31.9382 8.63292 32.0007 8.39161 32Z" fill="white"></path>
</svg>
