<?xml version="1.0" encoding="UTF-8"?>
<svg xmlns="http://www.w3.org/2000/svg" width="43" height="44" viewBox="0 0 43 44" fill="none">
  <path d="M41.5943 15C41.3393 14.9973 41.0894 14.9283 40.8687 14.7996L21.4969 3.07776L2.13513 14.7996C1.81451 14.9909 1.43186 15.0466 1.07064 14.9547C0.709428 14.8627 0.398954 14.6305 0.206897 14.3087C0.109868 14.15 0.0451793 13.9734 0.0166516 13.7892C-0.0118761 13.605 -0.00368476 13.4169 0.0407356 13.236C0.0851559 13.055 0.164943 12.8848 0.275387 12.7352C0.385832 12.5857 0.524712 12.4599 0.683965 12.3651L20.7714 0.202404C20.9906 0.0699676 21.2413 0 21.4969 0C21.7525 0 22.0033 0.0699676 22.2225 0.202404L42.3198 12.3751C42.4781 12.4709 42.616 12.5972 42.7257 12.7468C42.8354 12.8964 42.9147 13.0664 42.959 13.247C43.0033 13.4276 43.0118 13.6152 42.984 13.7991C42.9562 13.9831 42.8926 14.1597 42.7969 14.3187C42.6717 14.5272 42.4953 14.6995 42.2845 14.8189C42.0738 14.9382 41.836 15.0006 41.5943 15Z" fill="white"></path>
  <path d="M41.5985 44H1.41151C1.03797 43.9974 0.680445 43.8475 0.416306 43.5828C0.152167 43.3181 0.00260316 42.9598 0 42.5855V14.4046C0.00262414 14.0312 0.152495 13.6739 0.416913 13.4108C0.68133 13.1477 1.03888 13 1.41151 13C1.78414 13 2.14163 13.1477 2.40604 13.4108C2.67046 13.6739 2.82033 14.0312 2.82296 14.4046V41.171H40.187V14.4046C40.187 14.2193 40.2236 14.0359 40.2946 13.8648C40.3657 13.6937 40.4699 13.5384 40.6011 13.4079C40.7323 13.2773 40.8879 13.1741 41.0591 13.1041C41.2303 13.0341 41.4136 12.9987 41.5985 13C41.9702 13 42.3267 13.148 42.5895 13.4114C42.8524 13.6748 43 14.0321 43 14.4046V42.5855C43 42.9589 42.8527 43.3172 42.5901 43.5822C42.3276 43.8472 41.9711 43.9974 41.5985 44Z" fill="white"></path>
  <path d="M27.1086 28H22.3915C22.0224 28 21.6685 27.855 21.4076 27.5968C21.1466 27.3386 21 26.9884 21 26.6233V24.7876C21 22.457 21.9357 20.2218 23.6014 18.5738C25.267 16.9258 27.526 16 29.8816 16H34.5987C34.9696 16.0026 35.3244 16.1494 35.5867 16.4089C35.8489 16.6684 35.9974 17.0195 36 17.3865V19.2221C35.9987 20.3761 35.7677 21.5186 35.3202 22.5843C34.8726 23.6499 34.2173 24.618 33.3917 25.4331C32.566 26.2482 31.5862 26.8944 30.5082 27.3348C29.4301 27.7753 28.2749 28.0013 27.1086 28ZM23.7928 25.2368H27.1086C28.7147 25.2342 30.2544 24.6017 31.3902 23.478C32.526 22.3542 33.1652 20.8309 33.1678 19.2416V18.7925H29.9013C28.2943 18.7925 26.7532 19.4241 25.6168 20.5484C24.4805 21.6727 23.8421 23.1976 23.8421 24.7876L23.7928 25.2368Z" fill="white"></path>
  <path d="M22.5455 30H17.3316C14.8575 29.9974 12.4856 29.0548 10.7362 27.379C8.98676 25.7033 8.00271 23.4312 8 21.0613V19.3933C7.99999 19.0255 8.15182 18.6726 8.42239 18.4115C8.69295 18.1505 9.06028 18.0026 9.44428 18H14.6684C17.1434 18.0052 19.5153 18.95 21.2644 20.6273C23.0136 22.3046 23.9973 24.5777 24 26.9485V28.6557C23.9893 29.0175 23.831 29.3609 23.5591 29.6122C23.2872 29.8635 22.9233 30.0027 22.5455 30ZM10.8784 20.7473V21.0613C10.877 21.8735 11.043 22.6778 11.3668 23.4284C11.6907 24.179 12.166 24.8609 12.7655 25.4352C13.365 26.0095 14.0769 26.4647 14.8604 26.7749C15.644 27.0851 16.4838 27.2441 17.3316 27.2428H21.1216V26.9288C21.1189 25.2954 20.4403 23.7296 19.2345 22.5746C18.0287 21.4196 16.3941 20.7696 14.6888 20.767L10.8784 20.7473Z" fill="white"></path>
  <path d="M22.4947 37C22.2976 37 22.1023 36.9646 21.9203 36.8959C21.7382 36.8271 21.573 36.7264 21.434 36.5995C21.2951 36.4726 21.1853 36.322 21.1108 36.1564C21.0363 35.9908 20.9986 35.8135 21 35.6346V26.3654C20.9986 26.1865 21.0363 26.0092 21.1108 25.8436C21.1853 25.678 21.2951 25.5274 21.434 25.4005C21.573 25.2736 21.7382 25.1729 21.9203 25.1041C22.1023 25.0354 22.2976 25 22.4947 25C22.6928 24.9988 22.8892 25.0332 23.0724 25.1014C23.2557 25.1695 23.4221 25.27 23.5622 25.3971C23.7023 25.5241 23.8131 25.6751 23.8882 25.8414C23.9634 26.0076 24.0014 26.1857 24 26.3654V35.6346C24.0014 35.8143 23.9634 35.9924 23.8882 36.1586C23.8131 36.3249 23.7023 36.4759 23.5622 36.6029C23.4221 36.73 23.2557 36.8305 23.0724 36.8986C22.8892 36.9668 22.6928 37.0012 22.4947 37Z" fill="white"></path>
</svg>
