<?xml version="1.0" encoding="UTF-8"?>
<svg xmlns="http://www.w3.org/2000/svg" width="44" height="41" viewBox="0 0 44 41" fill="none">
  <path d="M43.9059 9.86927C44.0314 10.6233 44.0314 11.3929 43.9059 12.1469C43.6764 13.9199 42.9614 15.5957 41.8393 16.9906C39.844 19.488 37.0055 21.1777 33.8526 21.7449C32.921 21.9415 31.969 22.025 31.0173 21.9936C30.9474 21.8145 31.1071 21.7847 31.177 21.7051C32.039 20.8709 32.693 19.8471 33.0865 18.7159C33.48 17.5846 33.6022 16.3772 33.4433 15.1904C33.448 14.8186 33.5225 14.4509 33.6629 14.1063C33.7827 13.619 33.9125 13.1117 34.0423 12.6542C34.0423 12.4254 34.202 12.3259 34.4715 12.2862C36.7628 12.0201 38.9587 11.2193 40.8809 9.94882C41.1405 9.75984 41.3801 9.55097 41.6297 9.35205C41.8015 9.20375 42.006 9.09789 42.2266 9.04299C42.4472 8.9881 42.6776 8.98574 42.8993 9.0361C43.121 9.08647 43.3276 9.18815 43.5025 9.3329C43.6774 9.47764 43.8156 9.6614 43.9059 9.86927Z" fill="white"></path>
  <path d="M15.929 41C15.1634 40.9745 14.4356 40.6755 13.8896 40.1621L13.0942 39.4801L11.0549 37.7751C10.766 37.5588 10.5254 37.2894 10.347 36.983C10.1687 36.6765 10.0562 36.3391 10.0163 35.9905C9.97642 35.6419 10.0099 35.2893 10.1147 34.9532C10.2195 34.6172 10.3935 34.3045 10.6266 34.0337L12.4009 31.6077C14.0324 29.3863 15.6537 27.1648 17.2852 24.9532C17.7348 24.323 18.3455 23.8132 19.0594 23.4722C19.7733 23.1311 20.5666 22.9701 21.3639 23.0046C21.6041 23.0119 21.8387 23.0755 22.0471 23.1897L24.7595 24.7096C24.9736 24.8311 25.1524 25.0019 25.2795 25.2065C25.7878 25.9901 26.0373 26.9019 25.9955 27.823C25.9537 28.7441 25.6224 29.6317 25.045 30.3703L20.7623 36.2161L18.2233 39.6652C18.0026 40.011 17.7059 40.3068 17.3538 40.5322C17.0017 40.7576 16.6025 40.9072 16.1839 40.9707L15.929 41ZM12.9719 35.6803H13.0229L15.0011 37.3756L15.7964 38.0576L15.8678 38.116L15.929 38.0381L18.468 34.5891C19.8956 32.6405 21.3231 30.6918 22.7405 28.7432C22.982 28.4802 23.1362 28.1545 23.1834 27.8075C23.2307 27.4605 23.1688 27.1079 23.0056 26.7946L20.9663 25.6741C20.6969 25.6967 20.4366 25.7778 20.2051 25.9112C19.9736 26.0446 19.777 26.2268 19.6305 26.4439C17.999 28.6458 16.3776 30.8672 14.7563 33.0789L12.9719 35.5147V35.6803Z" fill="white"></path>
  <path d="M3.98248 24.9999C3.4491 25.0038 2.92785 24.8382 2.49145 24.5263C2.05506 24.2144 1.7253 23.7718 1.54819 23.2601C1.15714 22.2659 0.77587 21.1525 0.394594 20.0986L0.159972 19.4326C0.10287 19.2847 0.0602938 19.1315 0.0328749 18.9752V18.8758C-0.0109583 18.6761 -0.0109583 18.469 0.0328749 18.2693L0.120888 17.822C0.141787 17.7018 0.177921 17.5848 0.228413 17.474C0.436755 17.0406 0.742815 16.6635 1.12167 16.3733C1.50053 16.083 1.94144 15.8879 2.40851 15.8038L9.94607 13.9944L13.3971 13.1592C14.2903 12.9155 15.2352 12.9523 16.1076 13.2645C16.98 13.5768 17.739 14.1501 18.2852 14.909C18.5492 15.2471 18.6177 15.3464 18.9892 18.7068C19.0185 18.9361 18.9881 19.1692 18.9011 19.3829C18.6234 20.1203 18.1683 20.7752 17.5774 21.2876C16.9864 21.8 16.2786 22.1534 15.5186 22.3156L8.7436 23.9461L5.73248 24.6718L4.63754 24.9303C4.42203 24.9757 4.20256 24.999 3.98248 24.9999ZM2.80937 18.5974L3.00485 19.1343C3.36658 20.1285 3.72835 21.1227 4.09985 22.1168L5.07749 21.8981L8.08855 21.1624L14.8635 19.5319C15.1372 19.4835 15.3969 19.3736 15.6235 19.2102C15.8501 19.0468 16.0381 18.8341 16.1736 18.5875C16.0758 17.7325 15.9585 16.8179 15.8901 16.3804C15.6595 16.1164 15.3579 15.9268 15.0227 15.835C14.6874 15.7431 14.333 15.753 14.0032 15.8634L10.562 16.6886C8.03969 17.305 5.52714 17.9115 3.00485 18.508L2.80937 18.5974Z" fill="white"></path>
  <path d="M37.9564 1.51397C37.9021 1.23291 37.7663 0.973863 37.5657 0.768821C37.3651 0.56378 37.1085 0.421737 36.8277 0.360242C34.6328 -0.232032 32.3032 -0.0910627 30.1965 0.761535C27.8104 1.77076 25.7669 3.44287 24.3103 5.57788C22.8537 7.71288 22.0458 10.2204 21.9831 12.8005C22.0208 12.9849 21.9923 13.1766 21.9024 13.3422C21.4682 13.9603 21.1758 14.6659 21.0458 15.409C21.0458 15.5695 20.9854 15.6497 20.7838 15.6598C19.8869 15.6598 19.8869 15.6598 19 15.6598L19.1209 18.6695C19.8667 18.6695 20.6024 18.6695 21.3482 18.6695C21.4248 18.6603 21.5023 18.677 21.5681 18.717C21.634 18.7571 21.6843 18.8181 21.7109 18.8902C22.0473 19.4568 22.5007 19.9458 23.0412 20.3248C23.1174 20.3637 23.1761 20.4296 23.206 20.5094C23.2358 20.5892 23.2345 20.6773 23.2024 20.7562C22.9404 21.619 22.6784 22.4718 22.4366 23.3346L25.0568 25C25.3692 23.9968 25.6816 22.9333 25.9437 21.8799C25.9707 21.6956 26.0645 21.5275 26.2075 21.4074C26.3504 21.2872 26.5326 21.2234 26.7197 21.2278C27.3811 21.1401 28.0179 20.9207 28.5923 20.5826C29.1667 20.2446 29.6668 19.7949 30.0628 19.2602C30.4587 18.7256 30.7424 18.117 30.897 17.4709C31.0516 16.8247 31.0738 16.1541 30.9624 15.4992C30.917 15.2707 30.917 15.0355 30.9624 14.807C31.3077 13.0949 31.8035 11.4164 32.4439 9.79076C33.3882 7.10617 35.1013 4.75551 37.3719 3.02885C37.6148 2.86759 37.8015 2.63528 37.9062 2.36395C38.0109 2.09262 38.0284 1.79565 37.9564 1.51397ZM25.9739 18.2782C25.4393 18.2782 24.9267 18.0668 24.5487 17.6905C24.1707 17.3142 23.9583 16.8039 23.9583 16.2717C23.9583 15.7396 24.1707 15.2292 24.5487 14.853C24.9267 14.4767 25.4393 14.2652 25.9739 14.2652C26.2437 14.2651 26.5109 14.3189 26.7595 14.4235C27.008 14.5281 27.233 14.6813 27.4209 14.874C27.6089 15.0668 27.7561 15.2951 27.8537 15.5456C27.9514 15.796 27.9975 16.0634 27.9894 16.3319C27.9737 16.8536 27.7544 17.3486 27.3781 17.712C27.0018 18.0754 26.4981 18.2785 25.9739 18.2782Z" fill="white"></path>
</svg>
