<?xml version="1.0" encoding="UTF-8"?>
<svg xmlns="http://www.w3.org/2000/svg" width="40" height="41" viewBox="0 0 40 41" fill="none">
  <path d="M20.2892 2.84377L23.4807 6.06805L30.1527 6.53867L24.8171 8.43117L26.4327 12.1661L20.0499 10.0834L13.8565 12.1661L15.4722 8.59138L10.8047 6.31838L17.2375 6.12813L20.2892 2.84377ZM20.2892 0H20.2394C19.8641 0.0105145 19.4946 0.095561 19.1523 0.25024C18.8099 0.40492 18.5015 0.626162 18.2448 0.90119L15.9908 3.32442L10.7449 3.4846C10.1128 3.49986 9.5043 3.72852 9.01755 4.13366C8.5308 4.5388 8.19421 5.09679 8.06211 5.71758C7.93059 6.33884 8.00925 6.98641 8.28563 7.55773C8.56202 8.12904 9.02037 8.59146 9.58804 8.87176L11.7821 9.93316L11.3034 10.9846C11.075 11.4888 10.9976 12.049 11.0809 12.5966C11.1641 13.1443 11.4043 13.6558 11.7722 14.0687C12.0397 14.3616 12.3649 14.5955 12.7271 14.7558C13.0893 14.9161 13.4807 14.9992 13.8765 14.9999C14.1813 15.0023 14.4844 14.955 14.774 14.8597L20.0798 13.0674L25.585 14.8597C25.8644 14.9549 26.1577 15.0023 26.4527 14.9999C26.8476 15.0028 27.2386 14.9213 27.5997 14.7607C27.9608 14.6001 28.2838 14.3642 28.547 14.0687C28.9063 13.6676 29.1441 13.1718 29.2325 12.6397C29.3208 12.1075 29.256 11.5611 29.0457 11.0647L28.6468 10.1334L31.1201 9.25226C31.7308 9.03332 32.2482 8.61061 32.5858 8.05475C32.9234 7.4989 33.0609 6.84357 32.9751 6.19823C32.8876 5.55149 32.581 4.9547 32.1071 4.508C31.6331 4.06129 31.0205 3.79187 30.3721 3.74496L24.7572 3.34443L22.3138 0.881174C22.0531 0.615713 21.7426 0.404689 21.4003 0.260325C21.0579 0.115961 20.6905 0.0411187 20.3192 0.0400617L20.2892 0Z" fill="white"></path>
  <path d="M19.9951 41C8.96912 41 0 33.08 0 23.3345C0 17.1501 3.73799 11.3648 9.75035 8.16283C9.9139 8.07606 10.0928 8.02269 10.2768 8.00582C10.4609 7.98894 10.6464 8.00887 10.8228 8.06448C10.9992 8.12008 11.163 8.21025 11.3048 8.32983C11.4465 8.44941 11.5635 8.59602 11.649 8.7613C11.8196 9.09352 11.853 9.48036 11.7418 9.83732C11.6306 10.1943 11.384 10.4924 11.0557 10.6665C5.88385 13.3896 2.79853 18.1277 2.79853 23.3345C2.79853 31.5139 10.5118 38.1771 19.9951 38.1771C29.4784 38.1771 37.1916 31.5139 37.1916 23.3345C37.1916 18.3471 34.2843 13.6889 29.419 10.9258C29.2593 10.8355 29.1187 10.7143 29.0054 10.5691C28.8921 10.424 28.8083 10.2577 28.7587 10.0799C28.7091 9.90202 28.6948 9.71603 28.7164 9.53257C28.7381 9.34912 28.7954 9.17178 28.885 9.01067C29.0662 8.68282 29.3689 8.44091 29.7268 8.33805C30.0846 8.23518 30.4683 8.27978 30.7936 8.46206C36.5587 11.7338 40 17.2898 40 23.3345C40 33.08 31.021 41 19.9951 41Z" fill="white"></path>
  <path d="M31.6712 23.9993H31.5454C31.3796 23.9818 31.2185 23.9281 31.0713 23.8414C30.9241 23.7548 30.7938 23.6367 30.6878 23.4941C30.5818 23.3515 30.5022 23.187 30.4535 23.0102C30.4049 22.8333 30.3881 22.6476 30.4042 22.4636C30.4042 22.4038 30.539 20.4692 29.5057 19.5618C29.3707 19.4492 29.2574 19.3078 29.1724 19.146C29.0873 18.9841 29.0323 18.805 29.0106 18.6192C28.9888 18.4334 29.0007 18.2446 29.0456 18.064C29.0905 17.8834 29.1675 17.7145 29.272 17.5674C29.3728 17.4169 29.4997 17.2903 29.6452 17.195C29.7908 17.0997 29.952 17.0377 30.1195 17.0126C30.2869 16.9876 30.4572 16.9999 30.6203 17.0489C30.7834 17.098 30.936 17.1827 31.0692 17.2982C33.2797 19.1629 32.9922 22.5733 32.9832 22.7129C32.9535 23.0726 32.8012 23.406 32.5574 23.6452C32.3135 23.8843 31.9965 24.0109 31.6712 23.9993Z" fill="white"></path>
</svg>
