<?xml version="1.0" encoding="UTF-8"?>
<svg xmlns="http://www.w3.org/2000/svg" width="45" height="45" viewBox="0 0 45 45" fill="none">
  <path d="M33.2797 26.1382C36.6392 29.6073 40.0933 32.9828 43.4963 36.4029C45.4907 38.4042 45.4994 41.5445 43.5332 43.5229C42.5967 44.4629 41.3273 44.9938 40.0016 44.9999C38.676 45.0061 37.4017 44.4869 36.4566 43.5556C35.7936 42.9143 35.1524 42.249 34.5002 41.5956C31.6273 38.7131 28.7543 35.8316 25.8814 32.9512C24.851 31.9168 24.5195 30.706 25.0597 29.3297C25.2325 28.8865 25.5564 28.5021 25.8129 28.0873L23.4522 25.8116C16.9679 30.9107 8.12732 29.4538 3.37552 23.7732C1.12005 21.0766 -0.0784215 17.6495 0.00398364 14.1323C0.0863887 10.6151 1.44403 7.24816 3.82331 4.66048C8.65119 -0.632459 16.7571 -1.54057 22.6697 2.57205C25.6368 4.64088 27.5997 7.43925 28.4561 10.9563C29.5745 15.5458 28.5898 19.7303 25.814 23.4433L28.1236 25.8388C30.0147 24.1565 31.9254 24.7401 33.2797 26.1382ZM25.7531 14.4874C25.7705 8.29074 20.7405 3.22972 14.5388 3.20468C8.36969 3.18072 3.2951 8.23956 3.27771 14.4428C3.26032 20.646 8.29361 25.7027 14.492 25.7277C20.6665 25.7528 25.7368 20.6885 25.7531 14.4896V14.4874ZM28.0779 30.5579C28.1506 30.6555 28.2282 30.7493 28.3105 30.8388C31.7472 34.2811 35.1842 37.7218 38.6216 41.1612C39.1836 41.7252 39.8335 41.9506 40.5911 41.6828C41.3019 41.4312 41.7638 40.8944 41.7507 40.1409C41.7431 39.688 41.6062 39.112 41.3073 38.8093C37.7543 35.2062 34.159 31.6446 30.5679 28.0655L28.0779 30.5579Z" fill="white"></path>
</svg>
