<?xml version="1.0" encoding="UTF-8"?>
<svg xmlns="http://www.w3.org/2000/svg" width="43" height="42" viewBox="0 0 43 42" fill="none">
  <path d="M17.789 27H15.3457C15.1682 27 14.9924 26.9626 14.8285 26.8901C14.6647 26.8175 14.5159 26.7112 14.3908 26.5772C14.2657 26.4432 14.1668 26.2841 14.0997 26.1093C14.0326 25.9344 13.9988 25.7472 14 25.5584V24.5431C14.0026 23.0738 14.5524 21.6655 15.5291 20.6265C16.5058 19.5876 17.8298 19.0027 19.211 19H21.6447C21.8231 18.9987 21.9999 19.035 22.1649 19.107C22.3299 19.179 22.4797 19.2851 22.6058 19.4193C22.7319 19.5534 22.8317 19.7129 22.8994 19.8884C22.967 20.0639 23.0012 20.2519 23 20.4416V21.4569C22.9974 22.9262 22.4476 24.3345 21.4709 25.3735C20.4942 26.4125 19.1702 26.9973 17.789 27ZM16.7296 24.1269H17.789C18.3861 24.1271 18.9636 23.8999 19.417 23.4866C19.8703 23.0732 20.1697 22.5009 20.2609 21.8731H19.211C18.6133 21.8746 18.0356 22.1022 17.581 22.515C17.1264 22.9279 16.8247 23.4992 16.7296 24.1269Z" fill="white"></path>
  <path d="M15.5507 28H12.735C11.2148 27.9973 9.7577 27.4039 8.68277 26.3497C7.60784 25.2955 7.00274 23.8665 7 22.3756V21.4416C7 21.2523 7.03802 21.0648 7.1119 20.8899C7.18577 20.715 7.29403 20.5561 7.43053 20.4222C7.56703 20.2884 7.7291 20.1822 7.90744 20.1097C8.08579 20.0373 8.27692 20 8.46997 20H11.296C12.8045 20.008 14.2491 20.5985 15.3167 21.6436C16.3844 22.6888 16.9891 24.1044 17 25.5838V26.599C16.9919 26.9716 16.836 27.3264 16.5654 27.588C16.2947 27.8497 15.9307 27.9974 15.5507 28ZM9.98132 22.8731C10.1019 23.5031 10.4431 24.072 10.9458 24.4817C11.4486 24.8913 12.0814 25.1159 12.735 25.1168H14.0393C13.921 24.4876 13.5819 23.9189 13.0808 23.5091C12.5798 23.0993 11.9484 22.8743 11.296 22.8731H9.98132Z" fill="white"></path>
  <path d="M15.5053 32C15.3067 32 15.1102 31.963 14.9268 31.8912C14.7435 31.8193 14.5771 31.7141 14.4371 31.5814C14.2972 31.4487 14.1865 31.2914 14.1115 31.1183C14.0365 30.9452 13.9986 30.7598 14 30.5729V25.4171C14 25.0413 14.1586 24.6808 14.4409 24.4151C14.7232 24.1493 15.1061 24 15.5053 24C15.9027 24.0027 16.2829 24.1531 16.5629 24.4186C16.8429 24.6841 17 25.043 17 25.4171V30.603C16.9944 30.9736 16.8348 31.3274 16.5554 31.5886C16.276 31.8497 15.899 31.9974 15.5053 32Z" fill="white"></path>
  <path d="M28.2327 12H1.41223C1.11121 11.9986 0.818481 11.8999 0.57659 11.7182C0.334699 11.5366 0.156283 11.2814 0.06725 10.9899C-0.0261422 10.6972 -0.0221789 10.3815 0.0786214 10.0913C0.179422 9.80116 0.371477 9.55258 0.625177 9.38381L14.0155 0.242419C14.2501 0.0880554 14.5229 0.0040306 14.8025 4.44137e-06H41.5831C41.8859 -0.000759106 42.1808 0.096946 42.4247 0.278762C42.6686 0.460579 42.8485 0.716917 42.9381 1.0101C43.0271 1.30408 43.02 1.6194 42.9176 1.90889C42.8152 2.19839 42.6232 2.4465 42.3702 2.61616L28.9799 11.7576C28.7572 11.9058 28.4988 11.9896 28.2327 12ZM6.08489 9.13129H27.8043L37.0001 2.86869H15.2807L6.08489 9.13129Z" fill="white"></path>
  <path d="M27.4819 42H1.41339C1.04025 42 0.682269 41.8466 0.417487 41.5733C0.152706 41.3 0.00262776 40.929 0 40.5411C0 40.1514 0.148898 39.7778 0.413964 39.5022C0.67903 39.2267 1.03853 39.0719 1.41339 39.0719H27.0041L40.75 29.2738C40.9036 29.1592 41.0779 29.078 41.2624 29.0351C41.4469 28.9922 41.6379 28.9886 41.8238 29.0243C42.0097 29.0601 42.1868 29.1345 42.3444 29.2432C42.502 29.3518 42.6368 29.4925 42.7407 29.6566C42.8497 29.8168 42.9266 29.998 42.9671 30.1895C43.0076 30.3811 43.0107 30.5792 42.9764 30.772C42.9421 30.9649 42.871 31.1486 42.7672 31.3125C42.6635 31.4763 42.5293 31.6169 42.3725 31.7259L28.2881 41.7517C28.049 41.9158 27.7684 42.0022 27.4819 42Z" fill="white"></path>
  <path d="M1.5 41C1.10302 40.9974 0.72307 40.8462 0.44236 40.579C0.161649 40.3119 0.00276648 39.9504 0 39.5727V11.4274C0.00276648 11.0496 0.161649 10.6881 0.44236 10.421C0.72307 10.1539 1.10302 10.0026 1.5 10C1.89783 10 2.27936 10.1504 2.56067 10.4181C2.84198 10.6858 3 11.0488 3 11.4274V39.5727C3 39.9512 2.84198 40.3143 2.56067 40.5819C2.27936 40.8496 1.89783 41 1.5 41Z" fill="white"></path>
  <path d="M28.4947 41C28.0973 40.9973 27.7171 40.8445 27.4371 40.5749C27.1571 40.3052 27 39.9407 27 39.5607V10.4394C27 10.0594 27.1571 9.69479 27.4371 9.42515C27.7171 9.15551 28.0973 9.00268 28.4947 9C28.8939 9 29.2768 9.15166 29.5591 9.42159C29.8414 9.69152 30 10.0576 30 10.4394V39.5607C30 39.9424 29.8414 40.3085 29.5591 40.5784C29.2768 40.8484 28.8939 41 28.4947 41Z" fill="white"></path>
  <path d="M41.4947 32C41.0982 32 40.7181 31.85 40.4378 31.5832C40.1575 31.3163 40 30.9544 40 30.5771V1.43297C40 1.05466 40.1571 0.691718 40.4371 0.423269C40.7171 0.15482 41.0973 0.00266415 41.4947 0C41.8939 0 42.2768 0.15096 42.5591 0.419697C42.8414 0.688434 43 1.05292 43 1.43297V30.5771C43 30.7648 42.9609 30.9506 42.8852 31.1239C42.8094 31.2972 42.6983 31.4545 42.5584 31.5868C42.4185 31.7191 42.2525 31.8237 42.0699 31.8946C41.8874 31.9655 41.6918 32.0013 41.4947 32Z" fill="white"></path>
</svg>
