<?xml version="1.0" encoding="UTF-8"?>
<svg xmlns="http://www.w3.org/2000/svg" width="39" height="37" viewBox="0 0 39 37" fill="none">
  <path d="M35.5639 37H3.42613C3.0479 37 2.68516 36.853 2.41771 36.5912C2.15027 36.3294 2 35.9744 2 35.6043V19.5825C2 19.3997 2.03698 19.2186 2.10877 19.0498C2.18056 18.881 2.28577 18.7279 2.41833 18.599C2.55089 18.4702 2.70816 18.3683 2.88113 18.2992C3.05409 18.2302 3.23932 18.1953 3.42613 18.1966C3.80169 18.1966 4.16186 18.3426 4.42743 18.6025C4.69299 18.8624 4.8422 19.2149 4.8422 19.5825V34.2085H34.1478V19.3859C34.1504 19.0174 34.3019 18.6649 34.569 18.4053C34.8362 18.1457 35.1974 18 35.5739 18C35.9504 18 36.3116 18.1457 36.5788 18.4053C36.8459 18.6649 36.9973 19.0174 37 19.3859V35.6141C36.9947 35.9835 36.8411 36.3359 36.5723 36.5953C36.3036 36.8546 35.9413 37 35.5639 37Z" fill="white"></path>
  <path d="M3.42657 11C3.04823 11 2.68539 10.8472 2.41787 10.5752C2.15035 10.3032 2.00004 9.93435 2.00004 9.5497V1.45037C1.9987 1.25953 2.03471 1.07032 2.10593 0.893749C2.17714 0.717175 2.28216 0.556763 2.4149 0.421817C2.54763 0.286871 2.70541 0.180099 2.87908 0.107695C3.05276 0.0352904 3.23886 -0.00132187 3.42657 3.6456e-05H35.5735C35.7608 3.6456e-05 35.9463 0.0375523 36.1194 0.110438C36.2924 0.183323 36.4497 0.290166 36.5822 0.424841C36.7146 0.559515 36.8197 0.719409 36.8914 0.89537C36.9631 1.07133 37 1.25991 37 1.45037V9.4067C36.9974 9.79052 36.8462 10.1578 36.5793 10.4292C36.3123 10.7006 35.951 10.8543 35.5735 10.857C35.1959 10.8543 34.8346 10.7006 34.5677 10.4292C34.3007 10.1578 34.1496 9.79052 34.1469 9.4067V2.89048H4.83299V9.5497C4.83303 9.93083 4.68549 10.2966 4.4223 10.5681C4.1591 10.8395 3.80141 10.9946 3.42657 11Z" fill="white"></path>
  <path d="M31.5168 21.999C30.3765 22.0139 29.2462 21.7786 28.202 21.3088C27.1578 20.8389 26.2238 20.1455 25.4627 19.275C24.7267 20.1445 23.8143 20.8388 22.7893 21.3093C21.7643 21.7798 20.6514 22.0152 19.5284 21.999C18.4075 22.0177 17.2962 21.7845 16.2727 21.3157C15.2492 20.8468 14.3383 20.1537 13.6042 19.2852C12.8411 20.1551 11.905 20.8474 10.859 21.3155C9.813 21.7836 8.68133 22.0167 7.54012 21.999C3.38418 21.999 0.00745762 18.9984 0.00745762 15.322C-0.00248587 15.1515 -0.00248587 14.9805 0.00745762 14.81V9.44394C0.00745294 9.25345 0.0442145 9.06488 0.115629 8.88903C0.187043 8.71317 0.291693 8.55353 0.423556 8.41931C0.555419 8.2851 0.711896 8.17894 0.883953 8.10698C1.05601 8.03502 1.24027 7.99869 1.42609 8.00004H37.5809C37.7667 7.99869 37.9509 8.03502 38.123 8.10698C38.295 8.17894 38.4515 8.2851 38.5834 8.41931C38.7152 8.55353 38.8199 8.71317 38.8913 8.88903C38.9627 9.06488 38.9995 9.25345 38.9995 9.44394V15.322C39.0494 19.0291 35.6727 21.999 31.5168 21.999ZM25.3927 13.8679C25.7699 13.8679 26.1318 14.0207 26.3994 14.2932C26.667 14.5656 26.8187 14.9354 26.8213 15.322C26.8213 17.3702 28.9293 19.0906 31.5168 19.0906C34.1042 19.0906 36.2122 17.4009 36.2122 15.322V10.8981H2.87466V14.9943C2.86935 15.0933 2.86935 15.1924 2.87466 15.2914C2.87466 17.3395 4.97263 19.0599 7.57009 19.0599C10.1676 19.0599 12.2555 17.3702 12.2555 15.2914C12.2555 14.9057 12.405 14.5358 12.671 14.2631C12.9371 13.9904 13.2979 13.8372 13.6742 13.8372C13.8616 13.8404 14.0464 13.8819 14.218 13.9593C14.3895 14.0366 14.5443 14.1483 14.6732 14.2877C14.9333 14.5614 15.077 14.9297 15.0728 15.3118C15.0728 15.3118 15.0728 15.4244 15.0728 15.4449C15.0728 17.4111 17.0708 19.019 19.5284 19.019C21.986 19.019 23.9941 17.4112 23.9941 15.4347C23.9887 15.394 23.9887 15.3526 23.9941 15.3118C23.9901 15.1232 24.0225 14.9357 24.0894 14.76C24.1562 14.5843 24.2562 14.4238 24.3837 14.2877C24.5193 14.1559 24.6794 14.0536 24.8545 13.9867C25.0296 13.9198 25.2161 13.8899 25.4027 13.8986L25.3927 13.8679Z" fill="white"></path>
  <path d="M24.5298 37H15.4599C15.0718 36.9973 14.7004 36.8444 14.4269 36.5744C14.1535 36.3045 14 35.9395 14 35.5591V27.4409C14 27.0605 14.1535 26.6956 14.4269 26.4256C14.7004 26.1557 15.0718 26.0027 15.4599 26H24.5298C24.9189 26.0027 25.2913 26.1553 25.5664 26.425C25.8415 26.6947 25.9973 27.0596 26 27.4409V35.5591C25.9973 35.9404 25.8415 36.3054 25.5664 36.5751C25.2913 36.8447 24.9189 36.9973 24.5298 37ZM16.9301 34.1181H23.0906V28.8312H16.9612L16.9301 34.1181Z" fill="white"></path>
</svg>
